Coordinates
version=1
nRows=14
nColumns=40
inDegrees=yes

Units are S.I. units (second, meters, Newtons, ...)
Angles are in degrees.

endheader
time	pelvis_tilt	pelvis_list	pelvis_rotation	pelvis_tx	pelvis_ty	pelvis_tz	hip_flexion_r	hip_adduction_r	hip_rotation_r	knee_angle_r	knee_angle_r_beta	ankle_angle_r	subtalar_angle_r	mtp_angle_r	hip_flexion_l	hip_adduction_l	hip_rotation_l	knee_angle_l	knee_angle_l_beta	ankle_angle_l	subtalar_angle_l	mtp_angle_l	lumbar_extension	lumbar_bending	lumbar_rotation	arm_flex_r	arm_add_r	arm_rot_r	elbow_flex_r	pro_sup_r	wrist_flex_r	wrist_dev_r	arm_flex_l	arm_add_l	arm_rot_l	elbow_flex_l	pro_sup_l	wrist_flex_l	wrist_dev_l
     41.61800000	     -1.73688565	     -3.78458871	      4.15638080	      1.07484926	      0.93494546	      0.49797151	      5.47026849	      2.84119767	    -15.49471271	     13.47870097	     13.47870097	     12.17500940	      2.34010757	     -4.72411309	     29.56369607	    -12.51892465	     -1.42570711	     38.36566948	     38.36566948	      9.77310259	    -17.51657884	     12.07663881	    -10.22398863	      6.28424040	      1.93039717	     27.34695108	    -21.62392383	     -3.83195540	     85.74077354	     44.69654809	      0.00000000	      0.00000000	     -2.73130554	     -7.70490655	     -7.85435120	     25.69410004	     46.07691952	      0.00000000	      0.00000000
     41.63100000	     -1.90889335	     -3.83748022	      4.41548128	      1.07358168	      0.93456220	      0.49746694	      5.14338420	      2.89987134	    -15.94070678	     13.04016263	     13.04016263	     12.10949717	      2.80382266	     -5.41746835	     29.51601970	    -12.17659460	     -1.30793582	     34.72285222	     34.72285222	      9.36255222	    -17.05270310	     10.95564631	    -10.30698366	      6.45047689	      2.17457904	     28.37441646	    -22.13371221	     -3.73349566	     88.49852817	     44.64018898	      0.00000000	      0.00000000	     -4.34237390	     -7.52847595	     -7.61067711	     27.01346242	     45.99734154	      0.00000000	      0.00000000
     41.64400000	     -2.10865700	     -3.83498074	      4.59344350	      1.07226238	      0.93412423	      0.49693605	      4.94331313	      2.91471049	    -16.02746784	     12.78616009	     12.78616009	     12.23178281	      2.79913860	     -5.53186948	     29.49985762	    -11.77779368	     -1.16192752	     31.34931617	     31.34931617	      9.45480943	    -16.13596522	     11.13760154	    -10.25061206	      6.50401986	      2.38091799	     29.87916761	    -22.20396370	     -3.95876096	     89.48438917	     44.62966887	      0.00000000	      0.00000000	     -5.37187244	     -7.35221313	     -7.45438580	     26.79627283	     45.95388996	      0.00000000	      0.00000000
     41.65700000	     -2.30594441	     -3.85859760	      4.77625378	      1.07093960	      0.93363996	      0.49627534	      4.73496534	      2.94323325	    -16.18781441	     12.51838035	     12.51838035	     12.38215043	      2.88853961	     -5.66251125	     29.51447322	    -11.40791391	     -0.99120133	     28.26374854	     28.26374854	      9.49320560	    -14.93415748	     11.25797780	    -10.23752704	      6.57402773	      2.52703609	     31.30843359	    -22.24486062	     -4.08668625	     90.54198821	     44.61270795	      0.00000000	      0.00000000	     -6.37827698	     -7.16454341	     -7.29329644	     26.68157532	     45.90901511	      0.00000000	      0.00000000
     41.67000000	     -2.45485028	     -3.90324702	      4.96616203	      1.06974651	      0.93319866	      0.49548443	      4.45859535	      2.98624658	    -16.38927546	     12.23560102	     12.23560102	     12.48379399	      3.08040048	     -5.79572834	     29.48917798	    -11.07124193	     -0.81696883	     25.51351088	     25.51351088	      9.51781722	    -13.51140453	     11.24716457	    -10.26634987	      6.66977633	      2.58205271	     32.70828215	    -22.22406880	     -4.13840718	     91.64923179	     44.59318590	      0.00000000	      0.00000000	     -7.38173881	     -6.98833831	     -7.06689906	     26.69827311	     45.85269352	      0.00000000	      0.00000000
     41.68300000	     -2.59450509	     -3.96343879	      5.15041240	      1.06861490	      0.93272041	      0.49457878	      4.16283426	      3.04055340	    -16.60187115	     11.94290528	     11.94290528	     12.60456812	      3.30326935	     -5.92680697	     29.53826315	    -10.77363378	     -0.68148689	     23.26037020	     23.26037020	      9.50482326	    -11.98332481	     11.18125719	    -10.29351590	      6.78521682	      2.65132968	     34.02835406	    -22.18407575	     -4.15746599	     92.59727103	     44.57831717	      0.00000000	      0.00000000	     -8.32842184	     -6.83324762	     -6.78095092	     26.78682022	     45.78777231	      0.00000000	      0.00000000
     41.69600000	     -2.68699912	     -4.05445143	      5.32663915	      1.06764147	      0.93223521	      0.49363319	      3.77846525	      3.13092685	    -16.91059586	     11.59419878	     11.59419878	     12.66177010	      3.66925733	     -6.30738083	     29.58740667	    -10.57085104	     -0.75321634	     21.47332833	     21.47332833	      9.11299920	    -10.46593233	     10.14195627	    -10.35517645	      6.91795647	      2.50658997	     35.50088440	    -22.04210782	     -3.73947602	     93.15766192	     44.62486708	      0.00000000	      0.00000000	     -9.92944235	     -7.04394557	     -4.47324235	     28.38715725	     45.40746265	      0.00000000	      0.00000000
     41.70900000	     -2.78563189	     -4.10555183	      5.49650419	      1.06675278	      0.93186718	      0.49255436	      3.38477946	      3.19493099	    -17.04758549	     11.22952601	     11.22952601	     12.79956553	      3.82761527	     -6.28885791	     29.68338358	    -10.30658057	     -0.80186363	     20.23041804	     20.23041804	      9.00170676	     -9.24024088	     10.31984757	    -10.39367977	      7.00295924	      2.55418022	     36.55351473	    -21.84891624	     -3.89500453	     93.81353528	     44.62265910	      0.00000000	      0.00000000	    -10.55023518	     -6.91703693	     -4.16894618	     28.06753269	     45.35922696	      0.00000000	      0.00000000
     41.72200000	     -2.98231067	     -4.22810447	      5.63496879	      1.06595325	      0.93121650	      0.49141229	      3.17867231	      3.29770156	    -17.15718300	     11.02704111	     11.02704111	     12.96223443	      3.89355402	     -6.30786938	     30.01089232	    -10.09728767	     -0.75289502	     19.63717586	     19.63717586	      8.80610347	     -8.57388220	     10.40328154	    -10.25814480	      7.10070949	      2.77871292	     37.46823932	    -21.97849216	     -4.08224454	     94.15431648	     44.62439843	      0.00000000	      0.00000000	    -11.09496275	     -6.78411238	     -4.07296433	     27.88337399	     45.33744835	      0.00000000	      0.00000000
     41.73500000	     -2.92911701	     -4.30358696	      5.76663317	      1.06562349	      0.93103897	      0.49020572	      2.41228398	      3.43167079	    -17.45567243	     10.33259457	     10.33259457	     13.04818605	      4.50229601	     -6.23311258	     29.97136927	     -9.97810009	     -1.21020719	     19.39953085	     19.39953085	      8.61120274	     -7.60818328	     10.23871358	    -10.39433018	      7.19593583	      2.65971633	     38.34822696	    -21.42860835	     -4.12730052	     94.66174920	     44.62474974	      0.00000000	      0.00000000	    -11.68061599	     -6.71540872	     -3.61131979	     27.62225639	     45.26668435	      0.00000000	      0.00000000
     41.74800000	     -3.04950284	     -4.38626249	      5.82569336	      1.06531586	      0.93046626	      0.48894418	      2.04490709	      3.50234499	    -17.51092251	     10.05360346	     10.05360346	     13.24447200	      4.69734630	     -6.24078843	     30.12320582	     -9.81490505	     -1.45513046	     19.59620107	     19.59620107	      8.20788708	     -7.52986207	     10.23911825	    -10.30162444	      7.23339121	      2.84621101	     38.97826543	    -21.41462876	     -4.24527914	     94.82619469	     44.62935333	      0.00000000	      0.00000000	    -12.07632056	     -6.64447735	     -3.47354329	     27.48230900	     45.24175230	      0.00000000	      0.00000000
     41.76100000	     -3.02667703	     -4.56924762	      5.89492443	      1.06542493	      0.93001456	      0.48762625	      1.29775116	      3.74656143	    -17.76617138	      9.36711844	      9.36711844	     13.33514050	      5.35371891	     -6.12466979	     30.09885653	     -9.81694676	     -1.79236187	     20.14391291	     20.14391291	      7.72271313	     -7.54264844	      9.80593811	    -10.28742114	      7.40892101	      2.81055987	     39.53317216	    -20.96509623	     -4.35888079	     94.83624366	     44.64627598	      0.00000000	      0.00000000	    -12.55895410	     -6.62797327	     -2.99599015	     27.31066933	     45.17015201	      0.00000000	      0.00000000
     41.77400000	     -3.10113465	     -4.61988511	      5.84570435	      1.06565792	      0.92932736	      0.48623720	      0.87707467	      3.76045310	    -17.68790641	      9.15918665	      9.15918665	     13.58690485	      5.55240257	     -6.14591966	     29.99065842	     -9.69837487	     -2.18109263	     20.78277760	     20.78277760	      7.26645828	     -7.94940218	      9.77205600	    -10.15265256	      7.38195693	      3.03483409	     39.79224491	    -20.88244262	     -4.41130160	     94.83643137	     44.65142607	      0.00000000	      0.00000000	    -12.87183109	     -6.62304702	     -2.90337656	     27.20231244	     45.15298698	      0.00000000	      0.00000000
     41.78700000	     -3.09066878	     -4.87633130	      5.81208308	      1.06629433	      0.92854974	      0.48488711	      0.14444061	      4.07353552	    -17.83744180	      8.53815011	      8.53815011	     13.76073566	      6.14580601	     -6.01885226	     29.84638253	     -9.78895165	     -2.25908269	     21.70720952	     21.70720952	      6.67945659	     -8.67178180	      9.38141224	    -10.03710842	      7.61106099	      3.11854664	     40.05968062	    -20.54851269	     -4.59158140	     94.54733502	     44.67552252	      0.00000000	      0.00000000	    -13.18418681	     -6.64081048	     -2.56488078	     27.10022647	     45.10371733	      0.00000000	      0.00000000
